<mxfile host="app.diagrams.net" modified="2023-10-13T13:32:23.328Z" agent="Mozilla/5.0 (Windows NT 10.0; Win64; x64; rv:109.0) Gecko/20100101 Firefox/118.0" etag="mNAlGL264bf3aceFOqt1" version="22.0.4" type="device">
  <diagram name="Page-1" id="oFOkixGnJxTZTQ6H6nZZ">
    <mxGraphModel dx="1173" dy="751" grid="1" gridSize="10" guides="1" tooltips="1" connect="1" arrows="1" fold="1" page="1" pageScale="1" pageWidth="827" pageHeight="1169" math="0" shadow="0">
      <root>
        <mxCell id="0" />
        <mxCell id="1" parent="0" />
        <mxCell id="ML5L80xC2dJR8aLORns--1" value="" style="rounded=0;whiteSpace=wrap;html=1;fillColor=#e1d5e7;strokeColor=#9673a6;opacity=50;movable=1;resizable=1;rotatable=1;deletable=1;editable=1;locked=0;connectable=1;" vertex="1" parent="1">
          <mxGeometry x="560" y="80" width="120" height="320" as="geometry" />
        </mxCell>
        <mxCell id="-lSlWNsEECAmL3CTk9FB-14" value="" style="rounded=0;whiteSpace=wrap;html=1;fillColor=#fff2cc;strokeColor=#d6b656;opacity=50;movable=1;resizable=1;rotatable=1;deletable=1;editable=1;locked=0;connectable=1;" parent="1" vertex="1">
          <mxGeometry x="80" y="80" width="120" height="320" as="geometry" />
        </mxCell>
        <mxCell id="-lSlWNsEECAmL3CTk9FB-13" value="" style="rounded=0;whiteSpace=wrap;html=1;fillColor=#d5e8d4;strokeColor=#82b366;opacity=50;movable=1;resizable=1;rotatable=1;deletable=1;editable=1;locked=0;connectable=1;" parent="1" vertex="1">
          <mxGeometry x="800" y="80" width="120" height="320" as="geometry" />
        </mxCell>
        <mxCell id="-lSlWNsEECAmL3CTk9FB-12" value="" style="rounded=0;whiteSpace=wrap;html=1;fillColor=#dae8fc;strokeColor=#6c8ebf;opacity=50;movable=1;resizable=1;rotatable=1;deletable=1;editable=1;locked=0;connectable=1;" parent="1" vertex="1">
          <mxGeometry x="320" y="80" width="120" height="320" as="geometry" />
        </mxCell>
        <mxCell id="-lSlWNsEECAmL3CTk9FB-1" value="Client" style="shape=umlActor;verticalLabelPosition=bottom;verticalAlign=top;html=1;outlineConnect=0;fillColor=none;" parent="1" vertex="1">
          <mxGeometry x="145" y="110" width="30" height="60" as="geometry" />
        </mxCell>
        <mxCell id="-lSlWNsEECAmL3CTk9FB-2" value="ServiceClient" style="shape=umlActor;verticalLabelPosition=bottom;verticalAlign=top;html=1;outlineConnect=0;fillColor=none;" parent="1" vertex="1">
          <mxGeometry x="360" y="200" width="30" height="60" as="geometry" />
        </mxCell>
        <mxCell id="-lSlWNsEECAmL3CTk9FB-4" value="Bandagiste" style="shape=umlActor;verticalLabelPosition=bottom;verticalAlign=top;html=1;outlineConnect=0;fillColor=none;" parent="1" vertex="1">
          <mxGeometry x="145" y="320" width="30" height="60" as="geometry" />
        </mxCell>
        <mxCell id="-lSlWNsEECAmL3CTk9FB-6" value="ServiceFacturation" style="shape=umlActor;verticalLabelPosition=bottom;verticalAlign=top;html=1;outlineConnect=0;fillColor=none;" parent="1" vertex="1">
          <mxGeometry x="360" y="300" width="30" height="60" as="geometry" />
        </mxCell>
        <mxCell id="-lSlWNsEECAmL3CTk9FB-7" value="Mutuelle" style="shape=umlActor;verticalLabelPosition=bottom;verticalAlign=top;html=1;outlineConnect=0;fillColor=none;" parent="1" vertex="1">
          <mxGeometry x="840" y="100" width="30" height="60" as="geometry" />
        </mxCell>
        <mxCell id="-lSlWNsEECAmL3CTk9FB-8" value="Prescripteur" style="shape=umlActor;verticalLabelPosition=bottom;verticalAlign=top;html=1;outlineConnect=0;fillColor=none;" parent="1" vertex="1">
          <mxGeometry x="90" y="220" width="30" height="60" as="geometry" />
        </mxCell>
        <mxCell id="-lSlWNsEECAmL3CTk9FB-11" value="MédecinConseil&lt;br&gt;" style="shape=umlActor;verticalLabelPosition=bottom;verticalAlign=top;html=1;outlineConnect=0;fillColor=none;" parent="1" vertex="1">
          <mxGeometry x="840" y="260" width="30" height="60" as="geometry" />
        </mxCell>
        <mxCell id="-lSlWNsEECAmL3CTk9FB-15" value="Alphamédis" style="text;html=1;strokeColor=none;fillColor=none;align=center;verticalAlign=middle;whiteSpace=wrap;rounded=0;" parent="1" vertex="1">
          <mxGeometry x="320" y="50" width="60" height="30" as="geometry" />
        </mxCell>
        <mxCell id="-lSlWNsEECAmL3CTk9FB-16" value="Mutuelle" style="text;html=1;strokeColor=none;fillColor=none;align=center;verticalAlign=middle;whiteSpace=wrap;rounded=0;" parent="1" vertex="1">
          <mxGeometry x="800" y="50" width="60" height="30" as="geometry" />
        </mxCell>
        <mxCell id="-lSlWNsEECAmL3CTk9FB-17" value="Patient" style="text;html=1;strokeColor=none;fillColor=none;align=center;verticalAlign=middle;whiteSpace=wrap;rounded=0;" parent="1" vertex="1">
          <mxGeometry x="80" y="50" width="60" height="30" as="geometry" />
        </mxCell>
        <mxCell id="-lSlWNsEECAmL3CTk9FB-19" value="" style="endArrow=classic;html=1;rounded=0;" parent="1" edge="1">
          <mxGeometry width="50" height="50" relative="1" as="geometry">
            <mxPoint x="630" y="340" as="sourcePoint" />
            <mxPoint x="840" y="290" as="targetPoint" />
          </mxGeometry>
        </mxCell>
        <mxCell id="-lSlWNsEECAmL3CTk9FB-20" value="Annexe93&lt;br&gt;Annexe13TER" style="edgeLabel;html=1;align=center;verticalAlign=middle;resizable=0;points=[];" parent="-lSlWNsEECAmL3CTk9FB-19" vertex="1" connectable="0">
          <mxGeometry x="0.0043" y="2" relative="1" as="geometry">
            <mxPoint as="offset" />
          </mxGeometry>
        </mxCell>
        <mxCell id="-lSlWNsEECAmL3CTk9FB-21" value="" style="endArrow=classic;html=1;rounded=0;" parent="1" edge="1">
          <mxGeometry width="50" height="50" relative="1" as="geometry">
            <mxPoint x="630" y="330" as="sourcePoint" />
            <mxPoint x="830" y="140" as="targetPoint" />
          </mxGeometry>
        </mxCell>
        <mxCell id="-lSlWNsEECAmL3CTk9FB-22" value="Annexe13TER&lt;br&gt;Annexe13&lt;br&gt;Ordonnance" style="edgeLabel;html=1;align=center;verticalAlign=middle;resizable=0;points=[];" parent="-lSlWNsEECAmL3CTk9FB-21" vertex="1" connectable="0">
          <mxGeometry x="0.0043" y="2" relative="1" as="geometry">
            <mxPoint as="offset" />
          </mxGeometry>
        </mxCell>
        <mxCell id="-lSlWNsEECAmL3CTk9FB-23" value="" style="endArrow=classic;html=1;rounded=0;dashed=1;" parent="1" edge="1">
          <mxGeometry width="50" height="50" relative="1" as="geometry">
            <mxPoint x="180" y="150" as="sourcePoint" />
            <mxPoint x="350" y="220" as="targetPoint" />
          </mxGeometry>
        </mxCell>
        <mxCell id="-lSlWNsEECAmL3CTk9FB-25" value="" style="endArrow=classic;html=1;rounded=0;dashed=1;" parent="1" edge="1">
          <mxGeometry width="50" height="50" relative="1" as="geometry">
            <mxPoint x="120" y="260" as="sourcePoint" />
            <mxPoint x="350" y="230" as="targetPoint" />
          </mxGeometry>
        </mxCell>
        <mxCell id="-lSlWNsEECAmL3CTk9FB-26" value="" style="endArrow=classic;html=1;rounded=0;dashed=1;" parent="1" edge="1">
          <mxGeometry width="50" height="50" relative="1" as="geometry">
            <mxPoint x="180" y="360" as="sourcePoint" />
            <mxPoint x="350" y="240" as="targetPoint" />
          </mxGeometry>
        </mxCell>
        <mxCell id="-lSlWNsEECAmL3CTk9FB-27" value="Dépôt" style="shape=umlActor;verticalLabelPosition=bottom;verticalAlign=top;html=1;outlineConnect=0;fillColor=none;" parent="1" vertex="1">
          <mxGeometry x="360" y="100" width="30" height="60" as="geometry" />
        </mxCell>
        <mxCell id="-lSlWNsEECAmL3CTk9FB-29" value="" style="endArrow=classic;html=1;curved=1;" parent="1" edge="1">
          <mxGeometry width="50" height="50" relative="1" as="geometry">
            <mxPoint x="390" y="240" as="sourcePoint" />
            <mxPoint x="400" y="130" as="targetPoint" />
            <Array as="points">
              <mxPoint x="470" y="160" />
            </Array>
          </mxGeometry>
        </mxCell>
        <mxCell id="-lSlWNsEECAmL3CTk9FB-31" value="fCMD || fNvPatient" style="edgeLabel;html=1;align=center;verticalAlign=middle;resizable=0;points=[];labelBackgroundColor=default;" parent="-lSlWNsEECAmL3CTk9FB-29" vertex="1" connectable="0">
          <mxGeometry x="0.532" y="18" relative="1" as="geometry">
            <mxPoint x="26" y="-4" as="offset" />
          </mxGeometry>
        </mxCell>
        <mxCell id="-lSlWNsEECAmL3CTk9FB-32" value="" style="endArrow=classic;html=1;rounded=0;" parent="1" edge="1">
          <mxGeometry width="50" height="50" relative="1" as="geometry">
            <mxPoint x="350" y="130" as="sourcePoint" />
            <mxPoint x="190" y="340" as="targetPoint" />
          </mxGeometry>
        </mxCell>
        <mxCell id="-lSlWNsEECAmL3CTk9FB-33" value="CMD + Docs" style="edgeLabel;html=1;align=center;verticalAlign=middle;resizable=0;points=[];" parent="-lSlWNsEECAmL3CTk9FB-32" vertex="1" connectable="0">
          <mxGeometry x="-0.1524" relative="1" as="geometry">
            <mxPoint x="42" y="-59" as="offset" />
          </mxGeometry>
        </mxCell>
        <mxCell id="-lSlWNsEECAmL3CTk9FB-34" value="" style="endArrow=classic;html=1;curved=1;" parent="1" edge="1">
          <mxGeometry width="50" height="50" relative="1" as="geometry">
            <mxPoint x="180" y="320" as="sourcePoint" />
            <mxPoint x="180" y="160" as="targetPoint" />
            <Array as="points">
              <mxPoint x="250" y="240" />
            </Array>
          </mxGeometry>
        </mxCell>
        <mxCell id="-lSlWNsEECAmL3CTk9FB-35" value="CMD + Docs" style="edgeLabel;html=1;align=center;verticalAlign=middle;resizable=0;points=[];" parent="-lSlWNsEECAmL3CTk9FB-34" vertex="1" connectable="0">
          <mxGeometry x="0.3134" y="18" relative="1" as="geometry">
            <mxPoint x="-36" y="-19" as="offset" />
          </mxGeometry>
        </mxCell>
        <mxCell id="-lSlWNsEECAmL3CTk9FB-36" value="" style="endArrow=none;html=1;curved=1;startArrow=classic;startFill=1;endFill=0;" parent="1" edge="1">
          <mxGeometry width="50" height="50" relative="1" as="geometry">
            <mxPoint x="180" y="330" as="sourcePoint" />
            <mxPoint x="190" y="160" as="targetPoint" />
            <Array as="points">
              <mxPoint x="260" y="240" />
            </Array>
          </mxGeometry>
        </mxCell>
        <mxCell id="-lSlWNsEECAmL3CTk9FB-37" value="A13 ||&lt;br&gt;A13TER" style="edgeLabel;html=1;align=center;verticalAlign=middle;resizable=0;points=[];" parent="-lSlWNsEECAmL3CTk9FB-36" vertex="1" connectable="0">
          <mxGeometry x="0.3134" y="18" relative="1" as="geometry">
            <mxPoint x="14" y="-19" as="offset" />
          </mxGeometry>
        </mxCell>
        <mxCell id="-lSlWNsEECAmL3CTk9FB-38" value="" style="endArrow=classic;html=1;startArrow=classic;startFill=1;curved=1;" parent="1" edge="1">
          <mxGeometry width="50" height="50" relative="1" as="geometry">
            <mxPoint x="110" y="210" as="sourcePoint" />
            <mxPoint x="140" y="140" as="targetPoint" />
            <Array as="points">
              <mxPoint x="100" y="160" />
            </Array>
          </mxGeometry>
        </mxCell>
        <mxCell id="-lSlWNsEECAmL3CTk9FB-40" value="A93" style="edgeLabel;html=1;align=center;verticalAlign=middle;resizable=0;points=[];" parent="-lSlWNsEECAmL3CTk9FB-38" vertex="1" connectable="0">
          <mxGeometry x="0.4222" y="2" relative="1" as="geometry">
            <mxPoint as="offset" />
          </mxGeometry>
        </mxCell>
        <mxCell id="-lSlWNsEECAmL3CTk9FB-39" value="" style="endArrow=classic;startArrow=classic;html=1;rounded=0;" parent="1" edge="1">
          <mxGeometry width="50" height="50" relative="1" as="geometry">
            <mxPoint x="160" y="300" as="sourcePoint" />
            <mxPoint x="160" y="220" as="targetPoint" />
          </mxGeometry>
        </mxCell>
        <mxCell id="-lSlWNsEECAmL3CTk9FB-41" value="A93" style="edgeLabel;html=1;align=center;verticalAlign=middle;resizable=0;points=[];" parent="-lSlWNsEECAmL3CTk9FB-39" vertex="1" connectable="0">
          <mxGeometry x="-0.1457" y="-1" relative="1" as="geometry">
            <mxPoint as="offset" />
          </mxGeometry>
        </mxCell>
        <mxCell id="-lSlWNsEECAmL3CTk9FB-42" value="" style="endArrow=classic;startArrow=none;html=1;curved=1;startFill=0;" parent="1" edge="1">
          <mxGeometry width="50" height="50" relative="1" as="geometry">
            <mxPoint x="350" y="170" as="sourcePoint" />
            <mxPoint x="360" y="330" as="targetPoint" />
            <Array as="points">
              <mxPoint x="310" y="300" />
            </Array>
          </mxGeometry>
        </mxCell>
        <mxCell id="-lSlWNsEECAmL3CTk9FB-43" value="BL fournisseurs&lt;br&gt;FacturesDiverses" style="edgeLabel;html=1;align=center;verticalAlign=middle;resizable=0;points=[];" parent="-lSlWNsEECAmL3CTk9FB-42" vertex="1" connectable="0">
          <mxGeometry x="0.589" y="15" relative="1" as="geometry">
            <mxPoint x="-14" y="3" as="offset" />
          </mxGeometry>
        </mxCell>
        <mxCell id="yIf8oaPxzqSR4vo-hlET-1" value="" style="endArrow=classic;startArrow=classic;html=1;curved=1;" parent="1" edge="1">
          <mxGeometry width="50" height="50" relative="1" as="geometry">
            <mxPoint x="399" y="310" as="sourcePoint" />
            <mxPoint x="409" y="250" as="targetPoint" />
            <Array as="points">
              <mxPoint x="429" y="280" />
            </Array>
          </mxGeometry>
        </mxCell>
        <mxCell id="yIf8oaPxzqSR4vo-hlET-2" value="" style="endArrow=classic;html=1;rounded=0;startArrow=classic;startFill=1;" parent="1" edge="1">
          <mxGeometry width="50" height="50" relative="1" as="geometry">
            <mxPoint x="180" y="370" as="sourcePoint" />
            <mxPoint x="350" y="340" as="targetPoint" />
          </mxGeometry>
        </mxCell>
        <mxCell id="yIf8oaPxzqSR4vo-hlET-4" value="Annexes" style="edgeLabel;html=1;align=center;verticalAlign=middle;resizable=0;points=[];" parent="yIf8oaPxzqSR4vo-hlET-2" vertex="1" connectable="0">
          <mxGeometry x="-0.194" y="3" relative="1" as="geometry">
            <mxPoint as="offset" />
          </mxGeometry>
        </mxCell>
        <mxCell id="ML5L80xC2dJR8aLORns--2" value="ServiceFacturation" style="shape=umlActor;verticalLabelPosition=bottom;verticalAlign=top;html=1;outlineConnect=0;fillColor=none;" vertex="1" parent="1">
          <mxGeometry x="600" y="300" width="30" height="60" as="geometry" />
        </mxCell>
        <mxCell id="ML5L80xC2dJR8aLORns--4" value="Office de tarification" style="text;html=1;strokeColor=none;fillColor=none;align=center;verticalAlign=middle;whiteSpace=wrap;rounded=0;" vertex="1" parent="1">
          <mxGeometry x="560" y="50" width="60" height="30" as="geometry" />
        </mxCell>
        <mxCell id="ML5L80xC2dJR8aLORns--5" value="" style="endArrow=classic;html=1;rounded=0;" edge="1" parent="1">
          <mxGeometry width="50" height="50" relative="1" as="geometry">
            <mxPoint x="400" y="340" as="sourcePoint" />
            <mxPoint x="590" y="340" as="targetPoint" />
          </mxGeometry>
        </mxCell>
        <mxCell id="ML5L80xC2dJR8aLORns--10" value="Annexes" style="edgeLabel;html=1;align=center;verticalAlign=middle;resizable=0;points=[];" vertex="1" connectable="0" parent="ML5L80xC2dJR8aLORns--5">
          <mxGeometry x="-0.1895" y="-3" relative="1" as="geometry">
            <mxPoint x="13" y="-3" as="offset" />
          </mxGeometry>
        </mxCell>
        <mxCell id="ML5L80xC2dJR8aLORns--7" value="" style="endArrow=classic;html=1;curved=1;" edge="1" parent="1">
          <mxGeometry width="50" height="50" relative="1" as="geometry">
            <mxPoint x="590" y="320" as="sourcePoint" />
            <mxPoint x="400" y="330" as="targetPoint" />
            <Array as="points">
              <mxPoint x="500" y="270" />
            </Array>
          </mxGeometry>
        </mxCell>
        <mxCell id="ML5L80xC2dJR8aLORns--11" value="Retour sur le&lt;br&gt;traitement" style="edgeLabel;html=1;align=center;verticalAlign=middle;resizable=0;points=[];" vertex="1" connectable="0" parent="ML5L80xC2dJR8aLORns--7">
          <mxGeometry x="0.0674" y="22" relative="1" as="geometry">
            <mxPoint as="offset" />
          </mxGeometry>
        </mxCell>
        <mxCell id="ML5L80xC2dJR8aLORns--12" value="" style="endArrow=classic;html=1;curved=1;" edge="1" parent="1">
          <mxGeometry width="50" height="50" relative="1" as="geometry">
            <mxPoint x="820" y="120" as="sourcePoint" />
            <mxPoint x="620" y="280" as="targetPoint" />
            <Array as="points">
              <mxPoint x="710" y="140" />
            </Array>
          </mxGeometry>
        </mxCell>
        <mxCell id="ML5L80xC2dJR8aLORns--13" value="&lt;div&gt;Payement&lt;/div&gt;&lt;div&gt;et retour&lt;/div&gt;&lt;div&gt;sur traitement&lt;br&gt;&lt;/div&gt;" style="edgeLabel;html=1;align=center;verticalAlign=middle;resizable=0;points=[];" vertex="1" connectable="0" parent="ML5L80xC2dJR8aLORns--12">
          <mxGeometry x="-0.3101" y="19" relative="1" as="geometry">
            <mxPoint as="offset" />
          </mxGeometry>
        </mxCell>
        <mxCell id="ML5L80xC2dJR8aLORns--14" value="" style="rounded=0;whiteSpace=wrap;html=1;fillColor=#e1d5e7;strokeColor=#9673a6;opacity=50;movable=0;resizable=0;rotatable=0;deletable=0;editable=0;locked=1;connectable=0;" vertex="1" parent="1">
          <mxGeometry x="560" y="520" width="120" height="320" as="geometry" />
        </mxCell>
        <mxCell id="ML5L80xC2dJR8aLORns--15" value="" style="rounded=0;whiteSpace=wrap;html=1;fillColor=#fff2cc;strokeColor=#d6b656;opacity=50;movable=0;resizable=0;rotatable=0;deletable=0;editable=0;locked=1;connectable=0;" vertex="1" parent="1">
          <mxGeometry x="80" y="520" width="120" height="320" as="geometry" />
        </mxCell>
        <mxCell id="ML5L80xC2dJR8aLORns--16" value="" style="rounded=0;whiteSpace=wrap;html=1;fillColor=#d5e8d4;strokeColor=#82b366;opacity=50;movable=0;resizable=0;rotatable=0;deletable=0;editable=0;locked=1;connectable=0;" vertex="1" parent="1">
          <mxGeometry x="800" y="520" width="120" height="320" as="geometry" />
        </mxCell>
        <mxCell id="ML5L80xC2dJR8aLORns--17" value="" style="rounded=0;whiteSpace=wrap;html=1;fillColor=#dae8fc;strokeColor=#6c8ebf;opacity=50;movable=0;resizable=0;rotatable=0;deletable=0;editable=0;locked=1;connectable=0;" vertex="1" parent="1">
          <mxGeometry x="320" y="520" width="120" height="320" as="geometry" />
        </mxCell>
        <mxCell id="ML5L80xC2dJR8aLORns--18" value="Client" style="shape=umlActor;verticalLabelPosition=bottom;verticalAlign=top;html=1;outlineConnect=0;fillColor=none;" vertex="1" parent="1">
          <mxGeometry x="145" y="550" width="30" height="60" as="geometry" />
        </mxCell>
        <mxCell id="ML5L80xC2dJR8aLORns--19" value="ServiceClient" style="shape=umlActor;verticalLabelPosition=bottom;verticalAlign=top;html=1;outlineConnect=0;fillColor=none;" vertex="1" parent="1">
          <mxGeometry x="360" y="640" width="30" height="60" as="geometry" />
        </mxCell>
        <mxCell id="ML5L80xC2dJR8aLORns--20" value="Bandagiste" style="shape=umlActor;verticalLabelPosition=bottom;verticalAlign=top;html=1;outlineConnect=0;fillColor=none;" vertex="1" parent="1">
          <mxGeometry x="145" y="760" width="30" height="60" as="geometry" />
        </mxCell>
        <mxCell id="ML5L80xC2dJR8aLORns--21" value="ServiceFacturation" style="shape=umlActor;verticalLabelPosition=bottom;verticalAlign=top;html=1;outlineConnect=0;fillColor=none;" vertex="1" parent="1">
          <mxGeometry x="360" y="740" width="30" height="60" as="geometry" />
        </mxCell>
        <mxCell id="ML5L80xC2dJR8aLORns--22" value="Mutuelle" style="shape=umlActor;verticalLabelPosition=bottom;verticalAlign=top;html=1;outlineConnect=0;fillColor=none;" vertex="1" parent="1">
          <mxGeometry x="840" y="540" width="30" height="60" as="geometry" />
        </mxCell>
        <mxCell id="ML5L80xC2dJR8aLORns--23" value="Prescripteur" style="shape=umlActor;verticalLabelPosition=bottom;verticalAlign=top;html=1;outlineConnect=0;fillColor=none;" vertex="1" parent="1">
          <mxGeometry x="90" y="660" width="30" height="60" as="geometry" />
        </mxCell>
        <mxCell id="ML5L80xC2dJR8aLORns--24" value="MédecinConseil&lt;br&gt;" style="shape=umlActor;verticalLabelPosition=bottom;verticalAlign=top;html=1;outlineConnect=0;fillColor=none;" vertex="1" parent="1">
          <mxGeometry x="840" y="700" width="30" height="60" as="geometry" />
        </mxCell>
        <mxCell id="ML5L80xC2dJR8aLORns--25" value="Alphamédis" style="text;html=1;strokeColor=none;fillColor=none;align=center;verticalAlign=middle;whiteSpace=wrap;rounded=0;" vertex="1" parent="1">
          <mxGeometry x="320" y="490" width="60" height="30" as="geometry" />
        </mxCell>
        <mxCell id="ML5L80xC2dJR8aLORns--26" value="Mutuelle" style="text;html=1;strokeColor=none;fillColor=none;align=center;verticalAlign=middle;whiteSpace=wrap;rounded=0;" vertex="1" parent="1">
          <mxGeometry x="800" y="490" width="60" height="30" as="geometry" />
        </mxCell>
        <mxCell id="ML5L80xC2dJR8aLORns--27" value="Patient" style="text;html=1;strokeColor=none;fillColor=none;align=center;verticalAlign=middle;whiteSpace=wrap;rounded=0;" vertex="1" parent="1">
          <mxGeometry x="80" y="490" width="60" height="30" as="geometry" />
        </mxCell>
        <mxCell id="ML5L80xC2dJR8aLORns--28" value="" style="endArrow=classic;html=1;rounded=0;" edge="1" parent="1">
          <mxGeometry width="50" height="50" relative="1" as="geometry">
            <mxPoint x="630" y="780" as="sourcePoint" />
            <mxPoint x="840" y="730" as="targetPoint" />
          </mxGeometry>
        </mxCell>
        <mxCell id="ML5L80xC2dJR8aLORns--29" value="Annexe93&lt;br&gt;Annexe13TER" style="edgeLabel;html=1;align=center;verticalAlign=middle;resizable=0;points=[];" vertex="1" connectable="0" parent="ML5L80xC2dJR8aLORns--28">
          <mxGeometry x="0.0043" y="2" relative="1" as="geometry">
            <mxPoint as="offset" />
          </mxGeometry>
        </mxCell>
        <mxCell id="ML5L80xC2dJR8aLORns--30" value="" style="endArrow=classic;html=1;rounded=0;" edge="1" parent="1">
          <mxGeometry width="50" height="50" relative="1" as="geometry">
            <mxPoint x="630" y="770" as="sourcePoint" />
            <mxPoint x="830" y="580" as="targetPoint" />
          </mxGeometry>
        </mxCell>
        <mxCell id="ML5L80xC2dJR8aLORns--31" value="Annexe13TER&lt;br&gt;Annexe13&lt;br&gt;Ordonnance" style="edgeLabel;html=1;align=center;verticalAlign=middle;resizable=0;points=[];" vertex="1" connectable="0" parent="ML5L80xC2dJR8aLORns--30">
          <mxGeometry x="0.0043" y="2" relative="1" as="geometry">
            <mxPoint as="offset" />
          </mxGeometry>
        </mxCell>
        <mxCell id="ML5L80xC2dJR8aLORns--35" value="Dépôt" style="shape=umlActor;verticalLabelPosition=bottom;verticalAlign=top;html=1;outlineConnect=0;fillColor=none;" vertex="1" parent="1">
          <mxGeometry x="360" y="540" width="30" height="60" as="geometry" />
        </mxCell>
        <mxCell id="ML5L80xC2dJR8aLORns--51" value="" style="endArrow=classic;html=1;rounded=0;startArrow=classic;startFill=1;" edge="1" parent="1">
          <mxGeometry width="50" height="50" relative="1" as="geometry">
            <mxPoint x="180" y="810" as="sourcePoint" />
            <mxPoint x="350" y="780" as="targetPoint" />
          </mxGeometry>
        </mxCell>
        <mxCell id="ML5L80xC2dJR8aLORns--52" value="Annexes" style="edgeLabel;html=1;align=center;verticalAlign=middle;resizable=0;points=[];" vertex="1" connectable="0" parent="ML5L80xC2dJR8aLORns--51">
          <mxGeometry x="-0.194" y="3" relative="1" as="geometry">
            <mxPoint as="offset" />
          </mxGeometry>
        </mxCell>
        <mxCell id="ML5L80xC2dJR8aLORns--53" value="ServiceFacturation" style="shape=umlActor;verticalLabelPosition=bottom;verticalAlign=top;html=1;outlineConnect=0;fillColor=none;" vertex="1" parent="1">
          <mxGeometry x="600" y="740" width="30" height="60" as="geometry" />
        </mxCell>
        <mxCell id="ML5L80xC2dJR8aLORns--54" value="Office de tarification" style="text;html=1;strokeColor=none;fillColor=none;align=center;verticalAlign=middle;whiteSpace=wrap;rounded=0;" vertex="1" parent="1">
          <mxGeometry x="560" y="490" width="60" height="30" as="geometry" />
        </mxCell>
        <mxCell id="ML5L80xC2dJR8aLORns--55" value="" style="endArrow=classic;html=1;rounded=0;" edge="1" parent="1">
          <mxGeometry width="50" height="50" relative="1" as="geometry">
            <mxPoint x="400" y="780" as="sourcePoint" />
            <mxPoint x="590" y="780" as="targetPoint" />
          </mxGeometry>
        </mxCell>
        <mxCell id="ML5L80xC2dJR8aLORns--56" value="Annexes" style="edgeLabel;html=1;align=center;verticalAlign=middle;resizable=0;points=[];" vertex="1" connectable="0" parent="ML5L80xC2dJR8aLORns--55">
          <mxGeometry x="-0.1895" y="-3" relative="1" as="geometry">
            <mxPoint x="13" y="-3" as="offset" />
          </mxGeometry>
        </mxCell>
        <mxCell id="ML5L80xC2dJR8aLORns--57" value="" style="endArrow=classic;html=1;curved=1;" edge="1" parent="1">
          <mxGeometry width="50" height="50" relative="1" as="geometry">
            <mxPoint x="590" y="760" as="sourcePoint" />
            <mxPoint x="400" y="770" as="targetPoint" />
            <Array as="points">
              <mxPoint x="500" y="710" />
            </Array>
          </mxGeometry>
        </mxCell>
        <mxCell id="ML5L80xC2dJR8aLORns--58" value="Retour sur le&lt;br&gt;traitement" style="edgeLabel;html=1;align=center;verticalAlign=middle;resizable=0;points=[];" vertex="1" connectable="0" parent="ML5L80xC2dJR8aLORns--57">
          <mxGeometry x="0.0674" y="22" relative="1" as="geometry">
            <mxPoint as="offset" />
          </mxGeometry>
        </mxCell>
        <mxCell id="ML5L80xC2dJR8aLORns--59" value="" style="endArrow=classic;html=1;curved=1;" edge="1" parent="1">
          <mxGeometry width="50" height="50" relative="1" as="geometry">
            <mxPoint x="820" y="560" as="sourcePoint" />
            <mxPoint x="620" y="720" as="targetPoint" />
            <Array as="points">
              <mxPoint x="710" y="580" />
            </Array>
          </mxGeometry>
        </mxCell>
        <mxCell id="ML5L80xC2dJR8aLORns--60" value="&lt;div&gt;Payement&lt;/div&gt;&lt;div&gt;et retour&lt;/div&gt;&lt;div&gt;sur traitement&lt;br&gt;&lt;/div&gt;" style="edgeLabel;html=1;align=center;verticalAlign=middle;resizable=0;points=[];" vertex="1" connectable="0" parent="ML5L80xC2dJR8aLORns--59">
          <mxGeometry x="-0.3101" y="19" relative="1" as="geometry">
            <mxPoint as="offset" />
          </mxGeometry>
        </mxCell>
      </root>
    </mxGraphModel>
  </diagram>
</mxfile>
